<svg width="196" height="186" viewBox="0 0 196 186" fill="none" xmlns="http://www.w3.org/2000/svg">
<path fill-rule="evenodd" clip-rule="evenodd" d="M0 9.67767L3.53553 6.14214C11.346 -1.66835 24.0093 -1.66835 31.8198 6.14214L83.6967 58.019C91.5072 65.8295 104.17 65.8295 111.981 58.019L163.858 6.14214C171.668 -1.66835 184.332 -1.66835 192.142 6.14213L195.678 9.67767L97.8388 107.517L0 9.67767Z" fill="#A4ADDF"/>
<path fill-rule="evenodd" clip-rule="evenodd" d="M175.678 92.1777C175.678 81.0414 162.213 75.4643 154.339 83.3388L122.839 114.839V114.839C117.957 119.72 117.957 127.635 122.839 132.517V132.517L154.339 164.017C162.213 171.891 175.678 166.314 175.678 155.178V155.178C175.678 151.862 174.361 148.683 172.017 146.339L163.497 137.82C155.687 130.009 155.687 117.346 163.497 109.536L172.017 101.017C174.361 98.6723 175.678 95.4929 175.678 92.1777V92.1777Z" fill="#F1F4FF"/>
<path fill-rule="evenodd" clip-rule="evenodd" d="M20 92.1777C20 81.0414 33.4643 75.4643 41.3388 83.3388L72.8388 114.839V114.839C77.7204 119.72 77.7204 127.635 72.8388 132.517V132.517L41.3388 164.017C33.4643 171.891 20 166.314 20 155.178V155.178C20 151.862 21.317 148.683 23.6612 146.339L32.1802 137.82C39.9907 130.009 39.9907 117.346 32.1802 109.536L23.6612 101.017C21.317 98.6723 20 95.4929 20 92.1777V92.1777Z" fill="#A4ADDF"/>
</svg>
